Normalized EMG Linear Envelopes
nRows=240
nColumns=4

endheader
time	 med_gas_r	  soleus_r	 tib_ant_r	
2.1623	  0.009476	  0.012539	  0.037415	
2.19556	  0.009589	  0.012364	  0.039919	
2.22883	  0.009637	  0.012225	  0.042345	
2.2621	  0.009573	  0.012191	  0.044333	
2.29536	  0.009436	  0.012398	  0.045829	
2.32863	  0.009274	  0.012862	  0.047102	
2.3619	  0.009132	  0.013579	  0.048495	
2.39516	  0.009031	  0.014527	  0.049964	
2.42843	  0.008972	  0.015614	  0.051287	
2.46169	  0.008954	  0.016666	  0.052283	
2.49496	  0.008986	  0.017358	  0.052862	
2.52823	  0.009064	  0.017313	  0.052911	
2.56149	  0.009141	  0.016631	  0.052414	
2.59476	  0.009106	  0.015617	  0.051433	
2.62802	  0.008882	  0.014514	  0.050035	
2.66129	  0.008482	  0.013517	  0.048331	
2.69456	  0.008052	  0.012811	  0.046496	
2.72782	  0.007702	  0.012477	  0.044596	
2.76109	  0.007496	  0.012460	  0.042726	
2.79435	  0.007473	  0.012616	  0.040628	
2.82762	  0.007651	  0.012876	  0.038510	
2.86089	  0.007993	  0.013127	  0.036778	
2.89415	  0.008403	  0.013220	  0.035901	
2.92742	  0.008766	  0.013146	  0.036009	
2.96069	  0.009002	  0.012978	  0.036792	
2.99395	  0.009084	  0.012781	  0.037958	
3.02722	  0.009027	  0.012564	  0.039593	
3.06048	  0.008890	  0.012361	  0.041582	
3.09375	  0.008720	  0.012139	  0.043155	
3.12702	  0.008520	  0.011849	  0.043812	
3.16028	  0.008275	  0.011536	  0.044082	
3.19355	  0.007985	  0.011228	  0.044191	
3.22681	  0.007706	  0.010910	  0.044036	
3.26008	  0.007535	  0.010591	  0.043730	
3.29335	  0.007522	  0.010330	  0.043463	
3.32661	  0.007659	  0.010191	  0.043173	
3.35988	  0.007955	  0.010172	  0.042764	
3.39315	  0.008380	  0.010311	  0.042285	
3.42641	  0.008905	  0.010685	  0.041948	
3.45968	  0.009528	  0.011287	  0.041527	
3.49294	  0.010227	  0.012019	  0.040624	
3.52621	  0.010928	  0.012776	  0.039477	
3.55948	  0.011509	  0.013395	  0.038705	
3.59274	  0.011797	  0.013635	  0.038466	
3.62601	  0.011705	  0.013367	  0.038509	
3.65927	  0.011330	  0.012809	  0.038722	
3.69254	  0.010783	  0.012169	  0.039204	
3.72581	  0.010120	  0.011586	  0.040163	
3.75907	  0.009426	  0.011153	  0.041648	
3.79234	  0.008801	  0.010904	  0.043503	
3.8256	  0.008309	  0.010785	  0.045764	
3.85887	  0.007970	  0.010750	  0.048646	
3.89214	  0.007769	  0.010820	  0.051931	
3.9254	  0.007679	  0.010984	  0.054941	
3.95867	  0.007657	  0.011223	  0.057094	
3.99194	  0.007659	  0.011590	  0.058237	
4.0252	  0.007661	  0.012137	  0.058565	
4.05847	  0.007659	  0.012867	  0.058341	
4.09173	  0.007675	  0.013724	  0.057570	
4.125	  0.007746	  0.014615	  0.056188	
4.15827	  0.007884	  0.015359	  0.054379	
4.19153	  0.008067	  0.015706	  0.052406	
4.2248	  0.008275	  0.015369	  0.050131	
4.25806	  0.008493	  0.014446	  0.047490	
4.29133	  0.008691	  0.013296	  0.045160	
4.3246	  0.008862	  0.012265	  0.043890	
4.35786	  0.009013	  0.011650	  0.044506	
4.39113	  0.009204	  0.011723	  0.048389	
4.4244	  0.009578	  0.012865	  0.057543	
4.45766	  0.010306	  0.015497	  0.073137	
4.49093	  0.011527	  0.019900	  0.095349	
4.52419	  0.013325	  0.026189	  0.123720	
4.55746	  0.015685	  0.034292	  0.156715	
4.59073	  0.018462	  0.043824	  0.190795	
4.62399	  0.021287	  0.053789	  0.221067	
4.65726	  0.023745	  0.062815	  0.244655	
4.69052	  0.025580	  0.069972	  0.262018	
4.72379	  0.026905	  0.075430	  0.275213	
4.75706	  0.027945	  0.079479	  0.285574	
4.79032	  0.028767	  0.082428	  0.293415	
4.82359	  0.029295	  0.084198	  0.297274	
4.85685	  0.029587	  0.084836	  0.295476	
4.89012	  0.029759	  0.085062	  0.287869	
4.92339	  0.029829	  0.085310	  0.276927	
4.95665	  0.029779	  0.085998	  0.266155	
4.98992	  0.029708	  0.087302	  0.257973	
5.02319	  0.029732	  0.089586	  0.253191	
5.05645	  0.029941	  0.093211	  0.252130	
5.08972	  0.030373	  0.097692	  0.255070	
5.12298	  0.030939	  0.102493	  0.262324	
5.15625	  0.031472	  0.106913	  0.274332	
5.18952	  0.031806	  0.109650	  0.290561	
5.22278	  0.032022	  0.110787	  0.309864	
5.25605	  0.032224	  0.110571	  0.330541	
5.28931	  0.032639	  0.109906	  0.351738	
5.32258	  0.033350	  0.109465	  0.371191	
5.35585	  0.034264	  0.109556	  0.385053	
5.38911	  0.035254	  0.110159	  0.391981	
5.42238	  0.036223	  0.111068	  0.395193	
5.45565	  0.037113	  0.112403	  0.397668	
5.48891	  0.038054	  0.114633	  0.401885	
5.52218	  0.039117	  0.117771	  0.409809	
5.55544	  0.040357	  0.121634	  0.424106	
5.58871	  0.041917	  0.126290	  0.446025	
5.62198	  0.043926	  0.131648	  0.474192	
5.65524	  0.046239	  0.137575	  0.504959	
5.68851	  0.048423	  0.143886	  0.533126	
5.72177	  0.050167	  0.149964	  0.557561	
5.75504	  0.051558	  0.155965	  0.581715	
5.78831	  0.052655	  0.162728	  0.605487	
5.82157	  0.053548	  0.170574	  0.626846	
5.85484	  0.054471	  0.178782	  0.641852	
5.8881	  0.055470	  0.185780	  0.648680	
5.92137	  0.056383	  0.190367	  0.651394	
5.95464	  0.057024	  0.193114	  0.652984	
5.9879	  0.057281	  0.194714	  0.654236	
6.02117	  0.056949	  0.195218	  0.652265	
6.05444	  0.055966	  0.194164	  0.643282	
6.0877	  0.054539	  0.191702	  0.628214	
6.12097	  0.052818	  0.187847	  0.607421	
6.15423	  0.050750	  0.181671	  0.581411	
6.1875	  0.048465	  0.174750	  0.553721	
6.22077	  0.046380	  0.169648	  0.527264	
6.25403	  0.045034	  0.167484	  0.503544	
6.2873	  0.044642	  0.168266	  0.484429	
6.32056	  0.045114	  0.171635	  0.471731	
6.35383	  0.046102	  0.176866	  0.465280	
6.3871	  0.047216	  0.182990	  0.463009	
6.42036	  0.048271	  0.188823	  0.463039	
6.45363	  0.049162	  0.192862	  0.462785	
6.4869	  0.049700	  0.193295	  0.457489	
6.52016	  0.049878	  0.189841	  0.444010	
6.55343	  0.049836	  0.183886	  0.425958	
6.58669	  0.049426	  0.176526	  0.407453	
6.61996	  0.048629	  0.168733	  0.390765	
6.65323	  0.047689	  0.161838	  0.378494	
6.68649	  0.046803	  0.156233	  0.372008	
6.71976	  0.045972	  0.151827	  0.370668	
6.75302	  0.045182	  0.149310	  0.375133	
6.78629	  0.044554	  0.149298	  0.386025	
6.81956	  0.044211	  0.150866	  0.401617	
6.85282	  0.044136	  0.153076	  0.419559	
6.88609	  0.044252	  0.155619	  0.437832	
6.91935	  0.044488	  0.158042	  0.454932	
6.95262	  0.044551	  0.159322	  0.468777	
6.98589	  0.044473	  0.159478	  0.478262	
7.01915	  0.044551	  0.159102	  0.483749	
7.05242	  0.044854	  0.158568	  0.485408	
7.08569	  0.045363	  0.158442	  0.482622	
7.11895	  0.045978	  0.158357	  0.476519	
7.15222	  0.046724	  0.157918	  0.468563	
7.18548	  0.047519	  0.156882	  0.458407	
7.21875	  0.048033	  0.154470	  0.446491	
7.25202	  0.047904	  0.150749	  0.434734	
7.28528	  0.047176	  0.146497	  0.425334	
7.31855	  0.045885	  0.141787	  0.417237	
7.35181	  0.044117	  0.136412	  0.408821	
7.38508	  0.042208	  0.131370	  0.400260	
7.41835	  0.040354	  0.127165	  0.390974	
7.45161	  0.038731	  0.123728	  0.381336	
7.48488	  0.037513	  0.121212	  0.373052	
7.51815	  0.036918	  0.119993	  0.366833	
7.55141	  0.036995	  0.120310	  0.362509	
7.58468	  0.037644	  0.121338	  0.360474	
7.61794	  0.038612	  0.121915	  0.361324	
7.65121	  0.039585	  0.122141	  0.366468	
7.68448	  0.040237	  0.122028	  0.375875	
7.71774	  0.040509	  0.121526	  0.389734	
7.75101	  0.040604	  0.120038	  0.406004	
7.78427	  0.040751	  0.117253	  0.420563	
7.81754	  0.040905	  0.113441	  0.429343	
7.85081	  0.040931	  0.109600	  0.429836	
7.88407	  0.040827	  0.106679	  0.422952	
7.91734	  0.040697	  0.104998	  0.410968	
7.9506	  0.040732	  0.104288	  0.398048	
7.98387	  0.041034	  0.103923	  0.387233	
8.01714	  0.041507	  0.103219	  0.380025	
8.0504	  0.041831	  0.102007	  0.377149	
8.08367	  0.041701	  0.100337	  0.377143	
8.11694	  0.041153	  0.099069	  0.378316	
8.1502	  0.040253	  0.099053	  0.377723	
8.18347	  0.039127	  0.100464	  0.374055	
8.21673	  0.038023	  0.102764	  0.368911	
8.25	  0.037231	  0.105554	  0.364626	
8.28327	  0.036857	  0.108951	  0.362933	
8.31653	  0.036705	  0.113052	  0.363167	
8.3498	  0.036614	  0.117534	  0.363372	
8.38306	  0.036567	  0.122200	  0.361923	
8.41633	  0.036593	  0.126771	  0.359857	
8.4496	  0.036825	  0.131062	  0.358438	
8.48286	  0.037201	  0.134419	  0.358876	
8.51613	  0.037501	  0.135522	  0.361358	
8.5494	  0.037671	  0.134325	  0.364693	
8.58266	  0.037880	  0.132243	  0.367362	
8.61593	  0.038152	  0.130061	  0.367395	
8.64919	  0.038371	  0.127914	  0.365159	
8.68246	  0.038485	  0.125692	  0.363419	
8.71573	  0.038546	  0.123264	  0.363643	
8.74899	  0.038527	  0.120425	  0.366302	
8.78226	  0.038535	  0.117164	  0.371584	
8.81552	  0.038781	  0.113877	  0.378664	
8.84879	  0.039313	  0.111253	  0.386252	
8.88206	  0.039910	  0.109645	  0.393021	
8.91532	  0.040398	  0.109556	  0.396537	
8.94859	  0.040704	  0.110604	  0.394706	
8.98185	  0.040850	  0.112011	  0.388974	
9.01512	  0.040907	  0.113001	  0.383066	
9.04839	  0.040885	  0.113403	  0.379171	
9.08165	  0.040693	  0.113563	  0.376986	
9.11492	  0.040282	  0.113547	  0.374301	
9.14819	  0.039562	  0.113178	  0.366516	
9.18145	  0.038465	  0.112456	  0.348294	
9.21472	  0.037099	  0.112069	  0.318387	
9.24798	  0.035649	  0.113259	  0.279957	
9.28125	  0.034107	  0.116474	  0.235973	
9.31452	  0.032644	  0.122227	  0.189090	
9.34778	  0.031572	  0.131529	  0.143662	
9.38105	  0.031007	  0.144616	  0.103379	
9.41431	  0.030737	  0.159796	  0.070139	
9.44758	  0.030305	  0.173404	  0.044507	
9.48085	  0.029520	  0.181482	  0.026121	
9.51411	  0.028478	  0.183674	  0.014097	
9.54738	  0.027256	  0.181392	  0.007214	
9.58065	  0.025842	  0.175107	  0.004068	
9.61391	  0.024245	  0.165521	  0.003324	
9.64718	  0.022523	  0.154569	  0.003891	
9.68044	  0.020745	  0.142542	  0.004949	
9.71371	  0.018932	  0.127550	  0.005953	
9.74698	  0.017045	  0.109119	  0.006600	
9.78024	  0.015016	  0.088275	  0.006854	
9.81351	  0.013014	  0.067249	  0.006809	
9.84677	  0.011234	  0.048386	  0.006580	
9.88004	  0.009775	  0.032896	  0.006267	
9.91331	  0.008688	  0.021046	  0.005933	
9.94657	  0.007982	  0.012688	  0.005606	
9.97984	  0.007596	  0.007320	  0.005280	
10.0131	  0.007433	  0.004270	  0.004970	
10.0464	  0.007425	  0.002915	  0.004703	
10.0796	  0.007509	  0.002746	  0.004500	
10.1129	  0.007670	  0.003362	  0.004375	
